# xmcd
#
# Track frame offsets: 
#        150
#        20244
#        50389
#        65684
#        87086
#
# Disc length: 1525 seconds
#
# Revision: 0
# Processed by: cddbd v1.5.2PL0 Copyright (c) Steve Scherf et al.
# Submitted via: ExactAudioCopy v1.0b4
#
DISCID=3e05f305
DTITLE=Jimmy Bez - Lies of a sinner
DYEAR=2016
DGENRE=Blues
TTITLE0=Lies of a sinner
TTITLE1=Don't let me die in vain
TTITLE2=Keep me back
TTITLE3=I don't belong
TTITLE4=Have you ever lover a woman
EXTD=
EXTT0=
EXTT1=
EXTT2=
EXTT3=
EXTT4=
PLAYORDER=
